<svg width="45" height="45" viewBox="0 0 45 45" fill="none" xmlns="http://www.w3.org/2000/svg">
<path d="M35.7748 12.375C34.4248 10.125 31.9498 9 29.2498 9H15.7498C13.0498 9 10.5748 10.125 9.22478 12.375C4.04978 20.25 2.92478 32.175 6.52478 34.65C10.1248 37.125 18.2248 26.325 22.4998 26.325C26.7748 26.325 34.6498 37.125 38.4748 34.65C42.0748 32.175 40.9498 20.25 35.7748 12.375V12.375ZM17.9998 20.25H15.7498V22.5H13.4998V20.25H11.2498V18H13.4998V15.75H15.7498V18H17.9998V20.25ZM30.1498 21.375C30.1498 22.5 29.2498 23.4 28.1248 23.4C26.9998 23.4 26.0998 22.5 26.0998 21.375C26.0998 20.25 26.9998 19.35 28.1248 19.35C29.2498 19.35 30.1498 20.25 30.1498 21.375ZM34.4248 16.875C34.4248 18 33.5248 18.9 32.3998 18.9C31.2748 18.9 30.3748 18 30.3748 16.875C30.3748 15.75 31.2748 14.85 32.3998 14.85C33.5248 14.85 34.4248 15.75 34.4248 16.875Z" fill="white"/>
</svg>
