<svg width="45" height="45" viewBox="0 0 45 45" fill="none" xmlns="http://www.w3.org/2000/svg">
<path d="M20.5678 3.54935C21.09 3.05566 21.7814 2.78058 22.5 2.78058C23.2186 2.78058 23.91 3.05566 24.4322 3.54935L38.0559 16.4278C38.8997 17.2237 39.375 18.3347 39.375 19.4934V35.159C39.375 36.2779 38.9305 37.351 38.1394 38.1422C37.3482 38.9333 36.2751 39.3778 35.1562 39.3778H29.5312C28.977 39.3778 28.4282 39.2686 27.9162 39.0564C27.4041 38.8442 26.9389 38.5332 26.5471 38.1412C26.1554 37.7491 25.8447 37.2837 25.6328 36.7715C25.421 36.2594 25.3121 35.7105 25.3125 35.1562V28.125C25.3125 27.752 25.1643 27.3943 24.9006 27.1306C24.6369 26.8669 24.2792 26.7187 23.9062 26.7187H21.0938C20.7208 26.7187 20.3631 26.8669 20.0994 27.1306C19.8357 27.3943 19.6875 27.752 19.6875 28.125V35.1562C19.6875 36.2751 19.243 37.3482 18.4519 38.1393C17.6607 38.9305 16.5876 39.375 15.4688 39.375H9.84375C8.72487 39.375 7.65181 38.9305 6.86064 38.1393C6.06947 37.3482 5.625 36.2751 5.625 35.1562V19.4906C5.625 18.3319 6.10313 17.2209 6.94688 16.425L20.5678 3.54373V3.54935ZM22.5 5.59123L8.87625 18.4725C8.73794 18.6036 8.62773 18.7615 8.55231 18.9365C8.47689 19.1115 8.43783 19.3 8.4375 19.4906V35.1562C8.4375 35.5292 8.58566 35.8869 8.84938 36.1506C9.1131 36.4143 9.47079 36.5625 9.84375 36.5625H15.4688C15.8417 36.5625 16.1994 36.4143 16.4631 36.1506C16.7268 35.8869 16.875 35.5292 16.875 35.1562V28.125C16.875 27.0061 17.3195 25.933 18.1106 25.1419C18.9018 24.3507 19.9749 23.9062 21.0938 23.9062H23.9062C25.0251 23.9062 26.0982 24.3507 26.8894 25.1419C27.6805 25.933 28.125 27.0061 28.125 28.125V35.1562C28.125 35.5292 28.2732 35.8869 28.5369 36.1506C28.8006 36.4143 29.1583 36.5625 29.5312 36.5625H35.1562C35.5292 36.5625 35.8869 36.4143 36.1506 36.1506C36.4143 35.8869 36.5625 35.5292 36.5625 35.1562V19.4906C36.5626 19.2996 36.5237 19.1105 36.4482 18.935C36.3728 18.7594 36.2624 18.6011 36.1237 18.4697L22.5 5.59123Z" fill="white"/>
</svg>
