<svg width="55" height="55" viewBox="0 0 55 55" fill="none" xmlns="http://www.w3.org/2000/svg">
<path d="M41.25 35.1389C37.2946 35.1389 35.1312 31.2446 33.0397 27.4786C31.376 24.4842 29.6557 21.3889 27.5 21.3889C25.3428 21.3889 23.624 24.4842 21.9603 27.4786C19.8672 31.2446 17.7039 35.1389 13.75 35.1389C9.70139 35.1389 7.86347 31.0047 6.2425 27.3564C4.64139 23.7508 3.44667 21.3889 1.52778 21.3889C1.12259 21.3889 0.73399 21.2279 0.447476 20.9414C0.160962 20.6549 0 20.2663 0 19.8611C0 19.4559 0.160962 19.0673 0.447476 18.7808C0.73399 18.4943 1.12259 18.3333 1.52778 18.3333C5.57639 18.3333 7.41431 22.4675 9.03528 26.1158C10.6364 29.7199 11.8311 32.0833 13.75 32.0833C15.9072 32.0833 17.626 28.9881 19.2897 25.9936C21.3828 22.2276 23.5461 18.3333 27.5 18.3333C31.4554 18.3333 33.6188 22.2276 35.7103 25.9936C37.374 28.9881 39.0943 32.0833 41.25 32.0833C43.1689 32.0833 44.3621 29.7199 45.9647 26.1158C47.5857 22.4675 49.4251 18.3333 53.4722 18.3333C53.8774 18.3333 54.266 18.4943 54.5525 18.7808C54.839 19.0673 55 19.4559 55 19.8611C55 20.2663 54.839 20.6549 54.5525 20.9414C54.266 21.2279 53.8774 21.3889 53.4722 21.3889C51.5533 21.3889 50.3601 23.7508 48.7575 27.3564C47.1365 31.0047 45.2971 35.1389 41.25 35.1389Z" fill="white"/>
</svg>
