<svg width="45" height="45" viewBox="0 0 45 45" fill="none" xmlns="http://www.w3.org/2000/svg">
<path fill-rule="evenodd" clip-rule="evenodd" d="M5.625 7.73438C5.625 5.0175 7.83 2.8125 10.5469 2.8125H17.5781C18.1376 2.8125 18.6741 3.03474 19.0697 3.43032C19.4653 3.82591 19.6875 4.36243 19.6875 4.92188C19.6875 5.48132 19.4653 6.01784 19.0697 6.41343C18.6741 6.80901 18.1376 7.03125 17.5781 7.03125H10.5469C10.3604 7.03125 10.1816 7.10533 10.0497 7.23719C9.91783 7.36905 9.84375 7.54789 9.84375 7.73438V37.2656C9.84375 37.6537 10.1587 37.9688 10.5469 37.9688H17.5781C18.1376 37.9688 18.6741 38.191 19.0697 38.5866C19.4653 38.9822 19.6875 39.5187 19.6875 40.0781C19.6875 40.6376 19.4653 41.1741 19.0697 41.5697C18.6741 41.9653 18.1376 42.1875 17.5781 42.1875H10.5469C9.24151 42.1875 7.98961 41.6689 7.06658 40.7459C6.14355 39.8229 5.625 38.571 5.625 37.2656V7.73438ZM34.9875 20.3906H18.9844C18.4249 20.3906 17.8884 20.6129 17.4928 21.0084C17.0972 21.404 16.875 21.9406 16.875 22.5C16.875 23.0594 17.0972 23.596 17.4928 23.9916C17.8884 24.3871 18.4249 24.6094 18.9844 24.6094H34.9875L29.4469 30.15C29.2396 30.3431 29.0734 30.576 28.9581 30.8347C28.8428 31.0935 28.7808 31.3728 28.7758 31.656C28.7708 31.9393 28.8229 32.2206 28.929 32.4832C29.0351 32.7459 29.193 32.9845 29.3933 33.1848C29.5936 33.3851 29.8322 33.543 30.0949 33.6491C30.3575 33.7552 30.6389 33.8073 30.9221 33.8023C31.2053 33.7973 31.4846 33.7353 31.7434 33.62C32.0021 33.5047 32.235 33.3385 32.4281 33.1312L41.5687 23.9906C41.9638 23.5951 42.1856 23.059 42.1856 22.5C42.1856 21.941 41.9638 21.4049 41.5687 21.0094L32.4281 11.8687C32.235 11.6615 32.0021 11.4953 31.7434 11.38C31.4846 11.2647 31.2053 11.2027 30.9221 11.1977C30.6389 11.1927 30.3575 11.2448 30.0949 11.3509C29.8322 11.457 29.5936 11.6149 29.3933 11.8152C29.193 12.0155 29.0351 12.2541 28.929 12.5168C28.8229 12.7794 28.7708 13.0607 28.7758 13.344C28.7808 13.6272 28.8428 13.9065 28.9581 14.1653C29.0734 14.424 29.2396 14.6569 29.4469 14.85L34.9875 20.3906V20.3906Z" fill="white"/>
</svg>
