<svg width="45" height="36" viewBox="0 0 45 36" fill="none" xmlns="http://www.w3.org/2000/svg">
<path d="M13.5 18C17.8523 18 21.375 14.4773 21.375 10.125C21.375 5.77266 17.8523 2.25 13.5 2.25C9.14766 2.25 5.625 5.77266 5.625 10.125C5.625 14.4773 9.14766 18 13.5 18ZM18.9 20.25H18.3164C16.8539 20.9531 15.2297 21.375 13.5 21.375C11.7703 21.375 10.1531 20.9531 8.68359 20.25H8.1C3.62812 20.25 0 23.8781 0 28.35V30.375C0 32.2383 1.51172 33.75 3.375 33.75H23.625C25.4883 33.75 27 32.2383 27 30.375V28.35C27 23.8781 23.3719 20.25 18.9 20.25ZM33.75 18C37.4766 18 40.5 14.9766 40.5 11.25C40.5 7.52344 37.4766 4.5 33.75 4.5C30.0234 4.5 27 7.52344 27 11.25C27 14.9766 30.0234 18 33.75 18ZM37.125 20.25H36.8578C35.8805 20.5875 34.8469 20.8125 33.75 20.8125C32.6531 20.8125 31.6195 20.5875 30.6422 20.25H30.375C28.9406 20.25 27.6187 20.6648 26.4586 21.3328C28.1742 23.182 29.25 25.6359 29.25 28.35V31.05C29.25 31.2047 29.2148 31.3523 29.2078 31.5H41.625C43.4883 31.5 45 29.9883 45 28.125C45 23.7727 41.4773 20.25 37.125 20.25V20.25Z" fill="white"/>
</svg>
