<svg width="45" height="45" viewBox="0 0 45 45" fill="none" xmlns="http://www.w3.org/2000/svg">
<path d="M41.248 15C41.2482 14.6597 41.1555 14.3258 40.9799 14.0344L35.9005 5.56875C35.5659 5.01533 35.0945 4.55732 34.5317 4.2388C33.9688 3.92027 33.3335 3.75194 32.6868 3.75H12.3093C11.0005 3.75 9.76867 4.4475 9.09555 5.57062L4.01617 14.0344C3.84058 14.3258 3.74787 14.6597 3.74805 15C3.74805 16.8844 4.4718 18.5888 5.62305 19.9088V37.5C5.62305 37.9973 5.82059 38.4742 6.17222 38.8258C6.52385 39.1775 7.00077 39.375 7.49805 39.375H22.498C22.9953 39.375 23.4722 39.1775 23.8239 38.8258C24.1755 38.4742 24.373 37.9973 24.373 37.5V28.125H31.873V37.5C31.873 37.9973 32.0706 38.4742 32.4222 38.8258C32.7739 39.1775 33.2508 39.375 33.748 39.375H37.498C37.9953 39.375 38.4722 39.1775 38.8239 38.8258C39.1755 38.4742 39.373 37.9973 39.373 37.5V19.9088C40.5243 18.5888 41.248 16.8844 41.248 15V15ZM37.468 15.4706C37.3527 16.3761 36.9114 17.2085 36.2267 17.8121C35.542 18.4157 34.6608 18.7491 33.748 18.75C31.6799 18.75 29.998 17.0681 29.998 15C29.998 14.8725 29.9512 14.76 29.9249 14.64L29.9624 14.6325L28.5355 7.5H32.6868L37.468 15.4706V15.4706ZM18.7612 15.1219L20.2837 7.5H24.7105L26.2349 15.1219C26.1693 17.1337 24.523 18.75 22.498 18.75C20.473 18.75 18.8268 17.1337 18.7612 15.1219V15.1219ZM12.3093 7.5H16.4605L15.0355 14.6325L15.073 14.64C15.0449 14.76 14.998 14.8725 14.998 15C14.998 17.0681 13.3162 18.75 11.248 18.75C10.3353 18.7491 9.45411 18.4157 8.76941 17.8121C8.08471 17.2085 7.6434 16.3761 7.52805 15.4706L12.3093 7.5ZM18.748 30H11.248V24.375H18.748V30Z" fill="white"/>
</svg>
